<svg width="300" height="300" viewBox="0 0 300 300" fill="none" xmlns="http://www.w3.org/2000/svg">
  <rect width="300" height="300" rx="20" fill="#2dd4bf" fill-opacity="0.1"/>
  <path d="M150 75C108.579 75 75 108.579 75 150C75 191.421 108.579 225 150 225C191.421 225 225 191.421 225 150C225 108.579 191.421 75 150 75ZM150 90C183.137 90 210 116.863 210 150C210 183.137 183.137 210 150 210C116.863 210 90 183.137 90 150C90 116.863 116.863 90 150 90Z" fill="#2dd4bf"/>
  <path d="M165 135L195 175H105L135 135L150 120L165 135Z" fill="#2dd4bf"/>
  <circle cx="120" cy="120" r="15" fill="#2dd4bf"/>
</svg> 